<svg id="logo_-_tracé_-_copie" data-name="logo - tracé - copie" xmlns="http://www.w3.org/2000/svg" viewBox="0 0 1194.68 1002.81"><defs><style>.cls-1{fill:#000;}</style></defs><title>logo_itsbudding</title><path class="cls-1" d="M2109.6,746.79a89.05,89.05,0,0,0-65-56.8c-34.65-7.58-75.37-11.27-119.77-11,27.1-77.7,43.7-153,36.69-202.85a89.57,89.57,0,0,0-117.41-72.33c-30.93,10.48-65.16,27.51-99.79,49.45-16.54-58.13-37.82-111.66-62.24-155.87-20-36.25-41.75-65.48-64.59-86.89-30.82-28.89-63.83-44-98.13-44.84l-1.42,0-1.42,0c-39.64.71-98.42,20.65-153.3,111.67-28.69,47.58-52.84,108.22-70.59,176.93-35.16-22.42-69.95-39.8-101.34-50.44a89.55,89.55,0,0,0-117.41,72.32h0c-7,49.84,9.59,125.15,36.69,202.85-44.4-.32-85.12,3.37-119.77,11a89.05,89.05,0,0,0-65,56.8,89.28,89.28,0,0,0,13.21,85.42c38.56,50,134.73,139.32,244,213.1,60.42,40.82,117.48,72,169.59,92.81,42.56,17,82,26.85,117.83,29.58q10.29,0.79,20.19.79,8.31,0,16.32-.56,5-.33,9.84-0.9l0.94-.11,0.94,0.11q3.93,0.46,7.94.76,8.93,0.71,18.22.7,9.9,0,20.19-.79c35.86-2.73,75.27-12.62,117.84-29.58,52.1-20.76,109.16-52,169.58-92.81,109.22-73.78,205.39-163,244-213.1A89.21,89.21,0,0,0,2109.6,746.79Zm-461-23.68,0.36-.5a629,629,0,0,1,124.58-128,546.47,546.47,0,0,1,47.81-33c-3.08,13-7.1,27.85-12.3,44.64-7.78,25.13-17.2,51.43-27.9,78q-1.75,4.35-3.55,8.71a997.82,997.82,0,0,0-97.57,22c-9.62,2.69-20.06,5.78-31.08,9.3l-1.44.46ZM1266.77,598.38a628.57,628.57,0,0,1,120.08,124.73l1.09,1.53q3.51,1.13,7.1,2.31c0.12,2.81.25,5.62,0.4,8.41q-3.73-5.49-7.5-10.72c-11.56-3.71-22.48-7-32.52-9.76-30.61-8.56-62.18-15.74-93.85-21.36,0,2.76,0,5.52,0,8.27q-1.89-4.45-3.73-8.92c-12.17-29.49-22.82-58.81-31.45-86.68-5.2-16.79-9.22-31.65-12.3-44.64A554.47,554.47,0,0,1,1266.77,598.38ZM1389.2,903.49q-3.37,7.11-6,14.34a163.81,163.81,0,0,0-8.21,85.27c-19.59-9.1-40.3-20-61.83-32.61-18.07-10.56-36.72-22.32-55.77-35.19-14.19-9.58-28-19.37-41.38-29.22a1298,1298,0,0,1-114-94.36c20.64-.12,42.48.85,65,2.89A853.93,853.93,0,0,1,1272.31,831c15.88,3.48,31.71,7.41,47.34,11.78q8.1,2.27,15.86,4.61a675.72,675.72,0,0,1,71.6,25.78A200.66,200.66,0,0,0,1389.2,903.49Zm19.09-357.32c11.08-61,28.27-118,49.88-164.6,26.18-56.46,49.7-77,58.7-82,11,6.63,41.53,35.6,73.76,114.18,16.22,39.56,29.58,83.83,39.4,129.64a750.45,750.45,0,0,0-89.07,102q-12.27,17-23.22,34.31-11-17.29-23.24-34.31A749.28,749.28,0,0,0,1408.29,546.17Zm411.22,359.9c-13.37,9.85-27.2,19.65-41.39,29.23q-20.61,13.92-40.52,26.07a779.76,779.76,0,0,1-77.08,41.74,454,454,0,0,1-58.06,22.71c-21.57,6.58-40.76,10-56.95,10h-0.86a214.81,214.81,0,0,1-16.34-16.18,142.12,142.12,0,0,1-10.47-13,79.92,79.92,0,0,1-9.89-18c-3.8-10.22-3.44-18.41,1.24-28.29a73.22,73.22,0,0,1,8.54-13.49c10-12.87,26.5-27.51,50.19-42.45,9.34-5.89,19.79-11.83,31.42-17.72q13.45-6.83,29-13.53l0.46-.2A679.28,679.28,0,0,1,1700,847.33q7.76-2.32,15.85-4.6c19.1-5.34,38.51-10,57.92-14a846.27,846.27,0,0,1,94.72-14.09c21.39-1.94,42.16-2.92,61.86-2.92h3.16A1296,1296,0,0,1,1819.51,906.07Z" transform="translate(-920.39 -165.68)"/></svg>